<?xml version="1.0" encoding="utf-8"?>
<!-- Generator: Adobe Illustrator 27.0.0, SVG Export Plug-In . SVG Version: 6.00 Build 0)  -->
<svg version="1.1" id="Layer_1" xmlns="http://www.w3.org/2000/svg" xmlns:xlink="http://www.w3.org/1999/xlink" x="0px" y="0px"
	 viewBox="0 0 196.1 50.4" style="enable-background:new 0 0 196.1 50.4;" xml:space="preserve">
<style type="text/css">
	.st0{fill:#660C39;}
</style>
<path class="st0" d="M83.7,15.8h-2.5V4.5h2.5V15.8z M11.2,15.8H4V4.5h7c2.3,0,3.6,1.1,3.6,3.1c0,1.4-0.9,2.1-1.4,2.4
	c1.1,0.5,1.7,1.5,1.7,2.7C14.9,14.6,13.5,15.8,11.2,15.8z M6.4,9h4.3c1.4,0,1.7-0.7,1.7-1.2c0-0.8-0.6-1.2-1.7-1.2H6.4V9z
	 M10.9,13.7c1,0,1.6-0.5,1.6-1.4c0-0.8-0.6-1.4-1.6-1.4H6.4v2.7H10.9z M27.2,13.7h-7.9v-2.6h7.1V8.9h-7.1V6.6h7.9V4.5H16.9v11.3
	h10.3V13.7z M109.4,6.6V4.5H99.1v11.3h10.3v-2.1h-7.9v-2.6h7.1V8.9h-7.1V6.6H109.4z M37.8,11.4l2.7,4.4h-2.7l-2.5-4.2h-3.5v4.2h-2.5
	V4.5h6.7c2.6,0,4.1,1.3,4.1,3.6C40.2,9.7,39.3,10.9,37.8,11.4z M37.8,8.1c0-1-0.7-1.5-1.9-1.5h-4v3h4C37.1,9.6,37.8,9,37.8,8.1z
	 M88.7,15.8h-2.5V4.5H93c2.6,0,4.1,1.3,4.1,3.6c0,1.6-0.9,2.8-2.4,3.3l2.7,4.4h-2.7l-2.5-4.2h-3.5V15.8z M88.7,9.6h4
	c1.2,0,1.9-0.5,1.9-1.5c0-1-0.7-1.5-1.9-1.5h-4V9.6z M60.2,13.9c-1.1,0-3.2-0.3-4.6-2.2l-0.1-0.1L54,13.3l0,0.1
	c1,1.6,3.5,2.6,6.1,2.6c3.3,0,5.4-1.4,5.4-3.8c0-2.5-2.1-2.9-5.2-3.3c-2.6-0.3-3.2-0.5-3.2-1.2c0-0.6,0.6-1.3,2.5-1.3
	c1.8,0,3.2,0.6,4,1.7l0.1,0.1l1.6-1.6l0-0.1c-1-1.4-3.1-2.3-5.5-2.3c-3,0-5,1.5-5,3.6c0,2.4,2.2,2.8,4.6,3.1l0.1,0
	c2.9,0.3,3.6,0.4,3.6,1.4C63,13.3,61.9,13.9,60.2,13.9z M15.2,27.9v-2.1v-4.5v0h-2.5v4.5H6.5v0v-4.5H4v0v11.3h2.3h0.1v-4.7h6.3v4.7
	h0.1h2.3V27.9z M26.3,30.1h-5.8l-1.2,2.6h-2.6l5.5-11.3h2.7l5.5,11.3h-2.7L26.3,30.1z M25.3,28l-1.9-4.1L21.5,28H25.3z M63,21.3
	l5.5,11.3h-2.7l-1.2-2.6h-5.8l-1.2,2.6h-2.6l5.5-11.3H63z M63.6,28l-1.9-4.1L59.7,28H63.6z M95.6,32.7l-1.2-2.6h-5.8l-1.2,2.6h-2.6
	l5.5-11.3h2.7l5.5,11.3H95.6z M93.3,28l-1.9-4.1L89.5,28H93.3z M28.9,23.5h4.6v9.2h2.5v-9.2h4.6v-2.1H28.9V23.5z M44.6,15.8h0.1
	v-3.5l1.7-1.5l4.4,4.9h0.2H52h1.9l-5.8-6.5l5.5-4.8h-3h-0.3h-0.2l-5.5,5v-5h-0.1h-2.2h-0.1v11.3h0.1H44.6z M53.5,27.9v-2.1v-4.5v0
	H51v4.5h-6.3v0v-4.5h-2.5v0v11.3h2.3h0.1v-4.7H51v4.7h0.1h2.3V27.9z M69.9,15.8v-4.7h6.3v4.7h0.1h2.3v-4.7V8.9V4.5v0h-2.5v4.5h-6.3
	v0V4.5h-2.5v0v11.3h2.3H69.9z M85.6,21.3l-3.7,11.3h-2.6l-2.5-8.3l-2.5,8.3h-2.6l0-0.1l-3.7-11.3h2.6l2.6,8.1l2.5-8.1h0.1H78h0.1
	l2.5,8.1l2.6-8.1H85.6z M73.1,29.6L73.1,29.6L73.1,29.6L73.1,29.6z M106.7,21.3h-0.2l-3.6,4.3l-3.6-4.3h-0.2H99h-2.6l5.3,6.5v4.9
	h0.1h2.3h0.1v-4.9l5.3-6.5h-2.6H106.7z M8.2,42.2H5.1v-2.7H4V46h1.1v-2.8h3.1V46h1.1v-6.5H8.2V42.2z M19.3,41
	c0.2,0.5,0.4,1.1,0.4,1.8c0,0.7-0.1,1.3-0.4,1.8c-0.2,0.5-0.6,0.9-1.1,1.2c-0.5,0.3-1,0.4-1.7,0.4s-1.2-0.1-1.7-0.4
	c-0.5-0.3-0.8-0.7-1.1-1.2c-0.2-0.5-0.4-1.1-0.4-1.8c0-0.7,0.1-1.3,0.4-1.8c0.2-0.5,0.6-0.9,1.1-1.2c0.5-0.3,1-0.4,1.7-0.4
	s1.2,0.1,1.7,0.4C18.7,40.1,19,40.5,19.3,41z M18.5,42.7c0-0.5-0.1-0.9-0.2-1.2c-0.1-0.4-0.4-0.6-0.7-0.8c-0.3-0.2-0.7-0.3-1.1-0.3
	c-0.4,0-0.8,0.1-1.1,0.3c-0.3,0.2-0.5,0.5-0.7,0.8c-0.1,0.4-0.2,0.8-0.2,1.2c0,0.5,0.1,0.9,0.2,1.2c0.1,0.4,0.4,0.6,0.7,0.8
	c0.3,0.2,0.7,0.3,1.1,0.3c0.4,0,0.8-0.1,1.1-0.3c0.3-0.2,0.5-0.5,0.7-0.8C18.4,43.6,18.5,43.2,18.5,42.7z M27.1,44.1l-2.3-4.6h-1V46
	h1v-4.2l2,4.2h0.4l2-4.2V46h1v-6.5h-1L27.1,44.1z M34.8,46H39v-1h-3.1v-1.8h2.6v-1h-2.6v-1.6H39v-1h-4.2V46z M47.7,42.8
	c-0.2-0.1-0.4-0.2-0.6-0.3c-0.2-0.1-0.4-0.1-0.5-0.2L45.4,42c-0.1,0-0.3-0.1-0.4-0.1c-0.1-0.1-0.3-0.1-0.4-0.2
	c-0.1-0.1-0.1-0.2-0.1-0.4c0-0.2,0.1-0.3,0.2-0.4c0.1-0.1,0.3-0.2,0.4-0.3c0.2-0.1,0.4-0.1,0.6-0.1c0.2,0,0.4,0.1,0.6,0.1
	c0.2,0.1,0.4,0.2,0.5,0.4c0.1,0.2,0.2,0.4,0.3,0.6l1.2-0.2c-0.1-0.4-0.3-0.7-0.5-1c-0.2-0.3-0.5-0.5-0.9-0.6
	c-0.3-0.1-0.7-0.2-1.2-0.2c-0.4,0-0.8,0.1-1.2,0.2c-0.4,0.1-0.6,0.4-0.9,0.6c-0.2,0.3-0.3,0.6-0.3,1.1c0,0.3,0,0.5,0.1,0.7
	c0.1,0.2,0.2,0.4,0.4,0.5c0.1,0.1,0.3,0.2,0.5,0.3c0.2,0.1,0.3,0.1,0.5,0.2l1.7,0.5c0.1,0,0.2,0.1,0.3,0.1c0.1,0,0.2,0.1,0.2,0.2
	c0.1,0.1,0.1,0.1,0.1,0.2c0,0.1,0,0.2,0,0.3c0,0.2-0.1,0.4-0.2,0.5c-0.1,0.1-0.3,0.2-0.5,0.3c-0.2,0.1-0.4,0.1-0.7,0.1
	c-0.4,0-0.7-0.1-1-0.3c-0.3-0.2-0.5-0.5-0.6-0.9l-1.1,0.2c0.1,0.4,0.2,0.8,0.5,1.1c0.2,0.3,0.6,0.5,0.9,0.7c0.4,0.2,0.8,0.2,1.3,0.2
	c0.3,0,0.7,0,1-0.1c0.3-0.1,0.6-0.2,0.8-0.4c0.2-0.2,0.4-0.4,0.6-0.6c0.1-0.3,0.2-0.6,0.2-0.9c0-0.3-0.1-0.6-0.2-0.8
	C48,43.1,47.9,42.9,47.7,42.8z M52.6,46h4.2v-1h-3.1v-1.8h2.6v-1h-2.6v-1.6h3.1v-1h-4.2V46z M64.9,43.5l1.2,2.5h-1.2l-1.1-2.3h-1.5
	V46h-1.1v-6.5h2.7c0.1,0,0.1,0,0.2,0c0.1,0,0.2,0,0.3,0c0.4,0.1,0.7,0.2,0.9,0.4c0.2,0.2,0.4,0.4,0.5,0.7c0.1,0.3,0.2,0.6,0.2,1
	c0,0.5-0.1,1-0.4,1.4C65.4,43.2,65.2,43.4,64.9,43.5z M62.2,42.7h1.6c0.1,0,0.1,0,0.2,0c0.1,0,0.1,0,0.2,0c0.2,0,0.3-0.1,0.4-0.2
	c0.1-0.1,0.2-0.2,0.2-0.4c0-0.1,0.1-0.3,0.1-0.4c0-0.1,0-0.3-0.1-0.4c0-0.1-0.1-0.3-0.2-0.4c-0.1-0.1-0.2-0.2-0.4-0.2
	c-0.1,0-0.1,0-0.2,0c-0.1,0-0.1,0-0.2,0h-1.6V42.7z M72.6,44.9l-1.7-5.5h-1.1l2.1,6.5h1.6l2.1-6.5h-1.1L72.6,44.9z M79.5,46h1.1
	v-6.5h-1.1V46z M86.9,40.7c0.3-0.2,0.7-0.3,1.1-0.3c0.5,0,0.9,0.1,1.2,0.4c0.3,0.2,0.5,0.6,0.6,1l1.1-0.3c-0.2-0.6-0.6-1.1-1.1-1.5
	c-0.5-0.4-1.1-0.6-1.9-0.6c-0.7,0-1.2,0.1-1.7,0.4c-0.5,0.3-0.8,0.7-1.1,1.2c-0.2,0.5-0.4,1.1-0.4,1.8c0,0.7,0.1,1.3,0.4,1.8
	c0.2,0.5,0.6,0.9,1.1,1.2c0.5,0.3,1,0.4,1.7,0.4c0.8,0,1.4-0.2,1.9-0.6c0.5-0.4,0.9-0.9,1.1-1.5l-1.1-0.3c-0.1,0.4-0.3,0.8-0.6,1
	c-0.3,0.2-0.7,0.4-1.2,0.4c-0.4,0-0.8-0.1-1.1-0.3c-0.3-0.2-0.5-0.5-0.7-0.8c-0.1-0.4-0.2-0.8-0.2-1.2c0-0.5,0.1-0.9,0.2-1.2
	C86.4,41.1,86.6,40.9,86.9,40.7z M95.2,46h4.2v-1h-3.1v-1.8h2.6v-1h-2.6v-1.6h3.1v-1h-4.2V46z M108,42.8c-0.2-0.1-0.4-0.2-0.6-0.3
	c-0.2-0.1-0.4-0.1-0.5-0.2l-1.2-0.3c-0.1,0-0.3-0.1-0.4-0.1c-0.1-0.1-0.3-0.1-0.4-0.2c-0.1-0.1-0.1-0.2-0.1-0.4
	c0-0.2,0.1-0.3,0.2-0.4c0.1-0.1,0.3-0.2,0.4-0.3c0.2-0.1,0.4-0.1,0.6-0.1c0.2,0,0.4,0.1,0.6,0.1c0.2,0.1,0.4,0.2,0.5,0.4
	c0.1,0.2,0.2,0.4,0.3,0.6l1.2-0.2c-0.1-0.4-0.3-0.7-0.5-1c-0.2-0.3-0.5-0.5-0.9-0.6c-0.3-0.1-0.7-0.2-1.2-0.2
	c-0.4,0-0.8,0.1-1.2,0.2c-0.4,0.1-0.6,0.4-0.9,0.6c-0.2,0.3-0.3,0.6-0.3,1.1c0,0.3,0,0.5,0.1,0.7c0.1,0.2,0.2,0.4,0.4,0.5
	c0.1,0.1,0.3,0.2,0.5,0.3c0.2,0.1,0.3,0.1,0.5,0.2l1.7,0.5c0.1,0,0.2,0.1,0.3,0.1c0.1,0,0.2,0.1,0.2,0.2c0.1,0.1,0.1,0.1,0.1,0.2
	c0,0.1,0,0.2,0,0.3c0,0.2-0.1,0.4-0.2,0.5c-0.1,0.1-0.3,0.2-0.5,0.3c-0.2,0.1-0.4,0.1-0.7,0.1c-0.4,0-0.7-0.1-1-0.3
	c-0.3-0.2-0.5-0.5-0.6-0.9l-1.1,0.2c0.1,0.4,0.2,0.8,0.5,1.1c0.2,0.3,0.6,0.5,0.9,0.7c0.4,0.2,0.8,0.2,1.3,0.2c0.3,0,0.7,0,1-0.1
	c0.3-0.1,0.6-0.2,0.8-0.4c0.2-0.2,0.4-0.4,0.6-0.6c0.1-0.3,0.2-0.6,0.2-0.9c0-0.3-0.1-0.6-0.2-0.8C108.3,43.1,108.2,42.9,108,42.8z
	 M121.5,46V4.5h-0.8V46H121.5z M137.3,31.1c-1.1,0-2.1-0.3-2.8-0.8c-0.8-0.5-1.3-1.2-1.7-2.1c-0.4-0.9-0.6-1.9-0.6-3.1
	c0-1.2,0.2-2.2,0.6-3.1c0.4-0.9,1-1.6,1.7-2.1c0.8-0.5,1.7-0.8,2.8-0.8c1.1,0,2.1,0.3,2.8,0.8c0.8,0.5,1.3,1.2,1.7,2.1
	c0.4,0.9,0.6,1.9,0.6,3.1c0,1.2-0.2,2.2-0.6,3.1c-0.4,0.9-1,1.6-1.7,2.1C139.3,30.8,138.4,31.1,137.3,31.1z M137.3,30.2
	c0.9,0,1.7-0.2,2.3-0.6c0.6-0.4,1.1-1,1.4-1.8c0.3-0.8,0.5-1.6,0.5-2.6c0-1-0.2-1.8-0.5-2.6c-0.3-0.8-0.8-1.3-1.4-1.8
	c-0.6-0.4-1.4-0.6-2.3-0.6c-0.9,0-1.7,0.2-2.3,0.6c-0.6,0.4-1.1,1-1.4,1.8c-0.3,0.8-0.5,1.6-0.5,2.6c0,1,0.1,1.8,0.5,2.6
	c0.3,0.8,0.8,1.3,1.4,1.8C135.6,30,136.3,30.2,137.3,30.2z M141.7,31.1l-3-2.9l0.7-0.7l2.9,2.9L141.7,31.1z M148.5,31.1
	c-0.8,0-1.6-0.2-2.3-0.5c-0.7-0.4-1.2-0.9-1.5-1.5c-0.4-0.6-0.6-1.4-0.6-2.3v-7.3h0.9v7.1c0,0.6,0.1,1.2,0.3,1.7
	c0.2,0.5,0.5,0.8,0.8,1.1c0.3,0.3,0.7,0.5,1.1,0.6c0.4,0.1,0.8,0.2,1.2,0.2c0.4,0,0.8-0.1,1.2-0.2c0.4-0.1,0.8-0.3,1.1-0.6
	c0.3-0.3,0.6-0.7,0.8-1.1c0.2-0.5,0.3-1,0.3-1.7v-7.1h0.9v7.3c0,0.9-0.2,1.6-0.6,2.3c-0.4,0.6-0.9,1.1-1.5,1.5
	C150.1,30.9,149.4,31.1,148.5,31.1z M155.3,30.9V19.5h7v0.9h-6.1v4.3h5.2v0.9h-5.2V30h6.1v0.9H155.3z M159.4,18.2h-0.8l0.8-2.3h0.8
	L159.4,18.2z M164.3,30.9V19.5h4.3c0.6,0,1.1,0.1,1.6,0.4c0.5,0.2,0.8,0.6,1.1,1c0.3,0.4,0.4,0.9,0.4,1.5c0,0.6-0.2,1.2-0.5,1.6
	c-0.3,0.5-0.8,0.8-1.3,1l0-0.4c0.7,0.2,1.3,0.6,1.8,1.1c0.4,0.5,0.7,1.2,0.7,2c0,0.7-0.1,1.2-0.4,1.7c-0.3,0.5-0.7,0.8-1.2,1.1
	c-0.5,0.2-1.1,0.4-1.7,0.4H164.3z M165.2,24.5h3.4c0.4,0,0.8-0.1,1.1-0.3c0.3-0.2,0.6-0.4,0.8-0.8c0.2-0.3,0.3-0.7,0.3-1.1
	c0-0.6-0.2-1.1-0.6-1.4c-0.4-0.4-0.9-0.5-1.5-0.5h-3.4V24.5z M165.2,30h3.5c0.5,0,1-0.1,1.4-0.3c0.4-0.2,0.7-0.4,1-0.7
	c0.2-0.3,0.4-0.7,0.4-1.2c0-0.5-0.1-0.9-0.3-1.2c-0.2-0.4-0.5-0.7-0.9-0.9c-0.4-0.2-0.8-0.3-1.2-0.3h-3.7V30z M174,30.9V19.5h7v0.9
	h-6.1v4.3h5.2v0.9h-5.2V30h6.1v0.9H174z M187.2,31.1c-1.1,0-2.1-0.3-2.8-0.8c-0.8-0.5-1.3-1.2-1.7-2.1c-0.4-0.9-0.6-1.9-0.6-3.1
	c0-1.2,0.2-2.2,0.6-3.1c0.4-0.9,1-1.6,1.7-2.1c0.8-0.5,1.7-0.8,2.8-0.8c1.3,0,2.4,0.3,3.2,1c0.8,0.7,1.4,1.6,1.7,2.7l-0.9,0.2
	c-0.2-0.9-0.7-1.7-1.3-2.3c-0.7-0.6-1.5-0.8-2.6-0.8c-0.9,0-1.7,0.2-2.3,0.6c-0.6,0.4-1.1,1-1.4,1.8c-0.3,0.8-0.5,1.6-0.5,2.6
	c0,1,0.1,1.8,0.5,2.6c0.3,0.8,0.8,1.3,1.4,1.8c0.6,0.4,1.4,0.6,2.3,0.6c1.1,0,1.9-0.3,2.6-0.8c0.7-0.6,1.1-1.3,1.3-2.3l0.9,0.2
	c-0.3,1.1-0.9,2.1-1.7,2.7C189.6,30.8,188.5,31.1,187.2,31.1z M109.4,41.2v-2h0.3l0.7,1.5l0.7-1.5h0.3v2h-0.3v-1.4l-0.7,1.4h-0.1
	l-0.7-1.4v1.4H109.4z M112.7,41.3c-0.2,0-0.4,0-0.5-0.1c-0.1-0.1-0.3-0.2-0.3-0.4c-0.1-0.2-0.1-0.3-0.1-0.6c0-0.2,0-0.4,0.1-0.6
	c0.1-0.2,0.2-0.3,0.3-0.4c0.1-0.1,0.3-0.1,0.5-0.1c0.2,0,0.4,0.1,0.6,0.2c0.2,0.1,0.3,0.3,0.3,0.5l-0.3,0.1c0-0.1-0.1-0.3-0.2-0.3
	c-0.1-0.1-0.2-0.1-0.4-0.1c-0.1,0-0.3,0-0.4,0.1c-0.1,0.1-0.2,0.2-0.2,0.3c0,0.1-0.1,0.3-0.1,0.4c0,0.2,0,0.3,0.1,0.4
	c0,0.1,0.1,0.2,0.2,0.3c0.1,0.1,0.2,0.1,0.4,0.1c0.2,0,0.3,0,0.4-0.1c0.1-0.1,0.2-0.2,0.2-0.3l0.3,0.1c-0.1,0.2-0.2,0.4-0.3,0.5
	C113.1,41.2,112.9,41.3,112.7,41.3z"/>
</svg>
